<svg xmlns="http://www.w3.org/2000/svg" xmlns:xlink="http://www.w3.org/1999/xlink" width="182.762" height="198.509" viewBox="0 0 182.762 198.509">
  <defs>
    <clipPath id="clip-path">
      <rect id="Rectangle_342" data-name="Rectangle 342" width="182.762" height="198.509" fill="none"/>
    </clipPath>
    <clipPath id="clip-path-2">
      <path id="Path_41825" data-name="Path 41825" d="M64.761,16.147,29.33,36.6A40.478,40.478,0,0,0,9.089,71.659v40.912A40.478,40.478,0,0,0,29.33,147.629l35.432,20.455a40.473,40.473,0,0,0,40.481,0l35.428-20.455a40.478,40.478,0,0,0,20.241-35.057V71.659A40.478,40.478,0,0,0,140.671,36.6L105.243,16.147a40.478,40.478,0,0,0-40.481,0" transform="translate(-9.089 -10.723)" fill="none"/>
    </clipPath>
  </defs>
  <g id="Group_395" data-name="Group 395" opacity="0.391">
    <g id="Group_392" data-name="Group 392">
      <g id="Group_391" data-name="Group 391" clip-path="url(#clip-path)">
        <path id="Path_41815" data-name="Path 41815" d="M182.762,128.641V69.868A40.482,40.482,0,0,0,162.521,34.81l-50.9-29.387a40.481,40.481,0,0,0-40.481,0L20.241,34.81A40.482,40.482,0,0,0,0,69.868v58.773A40.482,40.482,0,0,0,20.241,163.7l50.9,29.387a40.481,40.481,0,0,0,40.481,0l50.9-29.387a40.482,40.482,0,0,0,20.241-35.057" transform="translate(0 0)" fill="#ffcf00"/>
        <path id="Path_41816" data-name="Path 41816" d="M160.913,112.343V71.431A40.484,40.484,0,0,0,140.67,36.374L105.242,15.919a40.484,40.484,0,0,0-40.483,0L29.329,36.374A40.477,40.477,0,0,0,9.09,71.431v40.912A40.477,40.477,0,0,0,29.329,147.4l35.43,20.457a40.484,40.484,0,0,0,40.483,0L140.67,147.4a40.484,40.484,0,0,0,20.242-35.057" transform="translate(6.38 7.367)" fill="#fff"/>
      </g>
    </g>
    <g id="Group_394" data-name="Group 394" transform="translate(15.469 18.249)">
      <g id="Group_393" data-name="Group 393" clip-path="url(#clip-path-2)">
        <path id="Path_41817" data-name="Path 41817" d="M47.12,60.03a3.608,3.608,0,0,0-2.609,0l-4.818,7.444a2.167,2.167,0,0,0-.8,1.607,2.2,2.2,0,0,0,.8,1.709l5.621,3.017a3.452,3.452,0,0,0,3.611-3.017V61.639A3.61,3.61,0,0,0,47.12,60.03" transform="translate(11.827 23.713)" fill="#ffcf00"/>
        <path id="Path_41818" data-name="Path 41818" d="M76.017,82.239a3.221,3.221,0,0,0-2.827,3.836q-.268,12.69-.54,25.379l5.676-3.13.79-22.525a3.213,3.213,0,0,0-3.1-3.56" transform="translate(35.525 39.473)" fill="#ffcf00"/>
        <path id="Path_41819" data-name="Path 41819" d="M37.992,111.671l-.024-.015-.551-25.813A3.213,3.213,0,0,0,34.6,82.007a3.213,3.213,0,0,0-3.1,3.56l.812,23.168q2.76,1.644,5.518,3.278a.756.756,0,0,1,.17-.342" transform="translate(6.627 39.31)" fill="#ffcf00"/>
        <path id="Path_41820" data-name="Path 41820" d="M124.906,62.131a5.176,5.176,0,0,1-5.155,5.165h-1.22a5.177,5.177,0,0,1-5.157-5.165V54.58a5.177,5.177,0,0,1,5.157-5.165h1.22a5.176,5.176,0,0,1,5.155,5.165ZM83.959,57.022h-1.7a7.222,7.222,0,0,1-7.192-7.208V39.285a7.221,7.221,0,0,1,7.192-7.2h1.7a7.22,7.22,0,0,1,7.191,7.2v10.53a7.221,7.221,0,0,1-7.191,7.208M53.12,60.8a5.176,5.176,0,0,1-5.155,5.169h-1.22A5.18,5.18,0,0,1,41.588,60.8V53.244a5.178,5.178,0,0,1,5.157-5.164h1.22a5.174,5.174,0,0,1,5.155,5.164Zm97.246,33.5q-5.2-9.331-10.387-18.665a7.2,7.2,0,0,0-6.185-4.185q-4.3-.345-8.613-.681a9.53,9.53,0,0,0,4.636-5.761,28.271,28.271,0,0,0,.917-7.984,28.678,28.678,0,0,0-.917-6.391,13.466,13.466,0,0,0-10.678-7.693,12.638,12.638,0,0,0-6.825,2.466,12.815,12.815,0,0,0-4.629,6.809V63.751q-8.626-.794-17.252-1.581a16.706,16.706,0,0,0,7.541-9.28V38.866a14.663,14.663,0,0,0-3.424-8.8,15.2,15.2,0,0,0-11.444-5.009A14.469,14.469,0,0,0,67.716,38.185q.112,6.558.226,13.125a22.9,22.9,0,0,0,6.232,11.084,38.08,38.08,0,0,0-12.126-.027,26.021,26.021,0,0,0-4.268,1.157,35.7,35.7,0,0,0,0-14.11,12.3,12.3,0,0,0-10.426-7.609,12.027,12.027,0,0,0-11.481,7.609q-.337,5.471-.676,10.943a12.083,12.083,0,0,0,4.36,8.554H34.743a9.72,9.72,0,0,0-9.936,4.57L14.557,91.128a5.622,5.622,0,0,0,0,6.563l13.865,10.181-.2,32.1c2.458,1.46,4.912,3.087,7.371,4.546L34.049,104.9l-15.019-9.66,11.917-19.6H47.824l-9.369,17.81a4.986,4.986,0,0,0-.885,3.227,5.092,5.092,0,0,0,1.988,3.537l19.291,13.389,1.237,42.656-.143-.089c0,.1-.009.194-.015.288l4.112,2.442q.651-24.091,1.3-48.171L44.669,95.435,59.722,71.7a4.907,4.907,0,0,1,5.32-2.715l36.233.6a3.861,3.861,0,0,1,4.517,3.017L119.14,97.045l-20.271,14.58L97.863,160.6c-.024.015-.051.031-.073.043a35.175,35.175,0,0,0,3.482-1.927l3.409-1.879,1.212-41.659,19.289-13.389a5.086,5.086,0,0,0,1.988-3.54,4.981,4.981,0,0,0-.885-3.227l-9.369-17.807H133.8l11.915,19.6-15.018,9.66-1.736,36.962,5.827-3.215,1.581-30.093,14-9.275a5.664,5.664,0,0,0,1.045-2.808,5.745,5.745,0,0,0-1.045-3.754" transform="translate(-5.993 -0.676)" fill="#ffcf00"/>
        <path id="Path_41821" data-name="Path 41821" d="M65.424,74.562a3.355,3.355,0,0,0,2.709-.2q2.157-.9,4.318-1.809a2.394,2.394,0,0,0,.5-3.618q-2.313-3.622-4.617-7.242a2.521,2.521,0,0,0-2.709-1.511,2.491,2.491,0,0,0-1.908,1.814V73.056a3.3,3.3,0,0,0,1.705,1.506" transform="translate(29.256 23.964)" fill="#ffcf00"/>
        <path id="Path_41822" data-name="Path 41822" d="M55.039,87.558c-1.894-.112-4.108,1.991-3.812,4.827V119.93a34.552,34.552,0,0,0,6.321.31c.046,0,.094,0,.136-.007q.337-13.921.667-27.848c.322-2.629-1.53-4.721-3.312-4.827" transform="translate(20.469 43.204)" fill="#ffcf00"/>
        <path id="Path_41823" data-name="Path 41823" d="M26.666,61.562a2.539,2.539,0,0,0-2.342,1.1l-2.481,4.694a3.5,3.5,0,0,0,0,3.177q2.272.9,4.547,1.794a2.873,2.873,0,0,0,2.066-2.486V62.665a2.585,2.585,0,0,0-1.79-1.1" transform="translate(-0.404 24.951)" fill="#ffcf00"/>
        <path id="Path_41824" data-name="Path 41824" d="M84.427,73.259q2.272-.894,4.547-1.792a3.478,3.478,0,0,0,.376-1.789,3.539,3.539,0,0,0-.376-1.387l-2.481-4.7a2.531,2.531,0,0,0-2.342-1.1,2.585,2.585,0,0,0-1.79,1.1v7.18a2.9,2.9,0,0,0,.664,1.576,2.867,2.867,0,0,0,1.4.907" transform="translate(42.34 25.604)" fill="#ffcf00"/>
      </g>
    </g>
  </g>
</svg>
