<svg id="Group_385" data-name="Group 385" xmlns="http://www.w3.org/2000/svg" xmlns:xlink="http://www.w3.org/1999/xlink" width="182.762" height="198.509" viewBox="0 0 182.762 198.509">
  <defs>
    <clipPath id="clip-path">
      <rect id="Rectangle_340" data-name="Rectangle 340" width="182.762" height="198.509" fill="none"/>
    </clipPath>
    <clipPath id="clip-path-2">
      <path id="Path_41805" data-name="Path 41805" d="M64.761,15.919,29.33,36.374A40.48,40.48,0,0,0,9.089,71.431v40.912A40.481,40.481,0,0,0,29.33,147.4l35.432,20.455a40.481,40.481,0,0,0,40.481,0L140.671,147.4a40.481,40.481,0,0,0,20.241-35.059V71.431a40.48,40.48,0,0,0-20.241-35.057L105.243,15.919a40.478,40.478,0,0,0-40.481,0" transform="translate(-9.089 -10.495)" fill="none"/>
    </clipPath>
  </defs>
  <g id="Group_382" data-name="Group 382">
    <g id="Group_381" data-name="Group 381" clip-path="url(#clip-path)">
      <path id="Path_41802" data-name="Path 41802" d="M182.762,128.641V69.868A40.482,40.482,0,0,0,162.521,34.81l-50.9-29.387a40.481,40.481,0,0,0-40.481,0L20.241,34.81A40.482,40.482,0,0,0,0,69.868v58.773A40.482,40.482,0,0,0,20.241,163.7l50.9,29.387a40.481,40.481,0,0,0,40.481,0l50.9-29.387a40.482,40.482,0,0,0,20.241-35.057" transform="translate(0 0)" fill="#c62f88"/>
      <path id="Path_41803" data-name="Path 41803" d="M160.913,112.343V71.431a40.484,40.484,0,0,0-20.242-35.057L105.242,15.919a40.484,40.484,0,0,0-40.483,0L29.329,36.374A40.477,40.477,0,0,0,9.09,71.431v40.912A40.477,40.477,0,0,0,29.329,147.4l35.43,20.457a40.484,40.484,0,0,0,40.483,0L140.671,147.4a40.484,40.484,0,0,0,20.242-35.057" transform="translate(6.38 7.367)" fill="#fff"/>
    </g>
  </g>
  <g id="Group_384" data-name="Group 384" transform="translate(15.469 17.861)">
    <g id="Group_383" data-name="Group 383" clip-path="url(#clip-path-2)">
      <path id="Path_41804" data-name="Path 41804" d="M149.669,99.329l-16.3-.771,2.083-44.125,16.294.773ZM39.887,100.517l-18.462-.873,2.136-45.26,18.459.876Zm118.99-52.859,9.294.206-.827-6.311q-5.626-.046-11.256-.1a3.145,3.145,0,0,0-2.478.31,3.2,3.2,0,0,0-1.443,2.378v4.139q-9.862-.309-19.723-.621a3.506,3.506,0,0,0-2.888.982,3.462,3.462,0,0,0-.931,2.536l-6.195-.519q-3.921-6.053-7.847-12.1a6.386,6.386,0,0,0-2.323-2.847,6.288,6.288,0,0,0-2.529-.98Q97.338,34.26,84.95,33.8a8.009,8.009,0,0,0-5.267,1.346L76.9,38.76H65.536a12.988,12.988,0,0,0-8.467,2.692l-7.226,6.205H22.893V42.794a4.125,4.125,0,0,0-3.509-4.034H6.89L5.859,45.9l10.325.1.619,60.829-9.914-.415v6.726l11.047.1,4.546-6.517H45.1l1.237-1.756h2.994q3.666,4.294,7.33,8.583a15.263,15.263,0,0,0,16.83,3.729,11.432,11.432,0,0,0,14.561-4.449,10.926,10.926,0,0,0,8.361.155,11.05,11.05,0,0,0,6.089-6.465A9.269,9.269,0,0,0,114.478,94q-3.817-5.021-7.642-10.038a3.327,3.327,0,0,0-5.574,3.208l6.917,8.382a4.2,4.2,0,0,1,.112,4.913c-1.331,1.622-4.449,1.789-6.408-.364q-3.666-4.707-7.33-9.413a3.468,3.468,0,0,0-5.473,3.622q3.094,3.423,6.193,6.838a4.858,4.858,0,0,1,.311,5.47c-1.4,1.981-4.873,2.466-7.332.31q-2.89-4.189-5.783-8.378a3.345,3.345,0,0,0-5.783,3.314q2.479,3.153,4.958,6.311a3.658,3.658,0,0,1-1.292,3.669,3.718,3.718,0,0,1-4.8-.466q-1.705-2.9-3.409-5.79A3.32,3.32,0,0,0,66.467,109l2.374,3.724a11.545,11.545,0,0,1-3.615-.931,12.556,12.556,0,0,1-3.972-2.9,96.6,96.6,0,0,1-6.869-7.747,6.418,6.418,0,0,0-3.821-2.909l-4.231-.206q.411-21.467.825-42.932a13.5,13.5,0,0,0,10.531-5.9,8.157,8.157,0,0,1,2.427-2.589,8.007,8.007,0,0,1,2.529-1.135l8.673.825-4.44,5.795A10.811,10.811,0,0,0,83.091,66.28q2.943-3.725,5.883-7.451A31.181,31.181,0,0,0,116.545,75.9a3.481,3.481,0,0,0-1.137-6.723,21.883,21.883,0,0,1-13.68-4.5,22.3,22.3,0,0,1-8.212-14.533,3.031,3.031,0,0,0-2.475-2.378,3.181,3.181,0,0,0-2.687,1.031q-4.853,6.568-9.7,13.14a4.7,4.7,0,0,1-7.538-5.38L84.434,39.9,108.8,41.037q4.289,7.087,8.572,14.172a4.6,4.6,0,0,0,3.921,2.173l6.61.2q-.722,19.195-1.447,38.38a4.4,4.4,0,0,0-3.872-.1,4.318,4.318,0,0,0-2.218,2.793,4.465,4.465,0,0,0,1.237,2.793,4.645,4.645,0,0,0,4.646,1.035,3.178,3.178,0,0,0,.98,2.173,3.287,3.287,0,0,0,2.84.722l19.512.209v4.449a4.666,4.666,0,0,0,3.2,4.343h12.082l1.826-6.93h-10.5Z" transform="translate(-11.356 5.835)" fill="#c62f88"/>
    </g>
  </g>
</svg>
