<svg xmlns="http://www.w3.org/2000/svg" xmlns:xlink="http://www.w3.org/1999/xlink" width="182.762" height="198.509" viewBox="0 0 182.762 198.509">
  <defs>
    <clipPath id="clip-path">
      <rect id="Rectangle_343" data-name="Rectangle 343" width="182.762" height="198.509" fill="none"/>
    </clipPath>
    <clipPath id="clip-path-2">
      <path id="Path_41833" data-name="Path 41833" d="M64.761,15.958,29.33,36.415A40.478,40.478,0,0,0,9.089,71.472v40.912A40.478,40.478,0,0,0,29.33,147.442L64.761,167.9a40.473,40.473,0,0,0,40.481,0l35.428-20.455a40.478,40.478,0,0,0,20.241-35.057V71.472a40.478,40.478,0,0,0-20.241-35.057L105.243,15.958a40.489,40.489,0,0,0-40.481,0" transform="translate(-9.089 -10.536)" fill="none"/>
    </clipPath>
  </defs>
  <g id="Group_400" data-name="Group 400" opacity="0.391">
    <g id="Group_397" data-name="Group 397">
      <g id="Group_396" data-name="Group 396" clip-path="url(#clip-path)">
        <path id="Path_41826" data-name="Path 41826" d="M182.762,128.641V69.868A40.482,40.482,0,0,0,162.521,34.81l-50.9-29.387a40.481,40.481,0,0,0-40.481,0L20.241,34.81A40.482,40.482,0,0,0,0,69.868v58.773A40.482,40.482,0,0,0,20.241,163.7l50.9,29.387a40.481,40.481,0,0,0,40.481,0l50.9-29.387a40.482,40.482,0,0,0,20.241-35.057" transform="translate(0 0)" fill="#94cc00"/>
        <path id="Path_41827" data-name="Path 41827" d="M160.913,112.343V71.431A40.484,40.484,0,0,0,140.67,36.374L105.242,15.919a40.484,40.484,0,0,0-40.483,0L29.329,36.374A40.477,40.477,0,0,0,9.09,71.431v40.912A40.477,40.477,0,0,0,29.329,147.4l35.43,20.457a40.484,40.484,0,0,0,40.483,0L140.67,147.4a40.484,40.484,0,0,0,20.242-35.057" transform="translate(6.38 7.367)" fill="#fff"/>
        <path id="Path_41828" data-name="Path 41828" d="M160.913,112.343V71.431A40.484,40.484,0,0,0,140.67,36.374L105.242,15.919a40.484,40.484,0,0,0-40.483,0L29.329,36.374A40.477,40.477,0,0,0,9.09,71.431v40.912A40.477,40.477,0,0,0,29.329,147.4l35.43,20.457a40.484,40.484,0,0,0,40.483,0L140.67,147.4A40.484,40.484,0,0,0,160.913,112.343Z" transform="translate(6.38 7.367)" fill="none" stroke="#1a1818" stroke-miterlimit="10" stroke-width="0.193"/>
      </g>
    </g>
    <g id="Group_399" data-name="Group 399" transform="translate(15.469 17.931)">
      <g id="Group_398" data-name="Group 398" clip-path="url(#clip-path-2)">
        <path id="Path_41829" data-name="Path 41829" d="M41.8,56.566a3.06,3.06,0,0,0-2.451-1.161,3.011,3.011,0,0,0-2.194,1.161L27.352,68.823a4.505,4.505,0,0,0,1.031,3.1,4.567,4.567,0,0,0,3.356,1.547q2.063-2.451,4.129-4.9c.609,2.3,4.706,16.719,19.482,24.255a38.873,38.873,0,0,0,28.386,2.452,3.329,3.329,0,1,0-2.064-6.323,30.314,30.314,0,0,1-21.934-.9c-12.888-5.82-16.253-18.767-16.645-20.385q2.387,1.871,4.774,3.741a3.263,3.263,0,0,0,5.419-3.482L41.8,56.566" transform="translate(3.726 20.956)" fill="#94cc00"/>
        <path id="Path_41830" data-name="Path 41830" d="M90.16,77.694a3.06,3.06,0,0,0,2.451,1.161A3.01,3.01,0,0,0,94.8,77.694l9.806-12.257a4.5,4.5,0,0,0-1.033-3.1,4.562,4.562,0,0,0-3.354-1.547q-2.063,2.451-4.129,4.9c-.609-2.3-4.706-16.719-19.482-24.255a38.873,38.873,0,0,0-28.386-2.452,3.329,3.329,0,1,0,2.064,6.323,30.314,30.314,0,0,1,21.934.9C85.114,52.033,88.479,64.98,88.87,66.6q-2.387-1.871-4.774-3.741a3.263,3.263,0,0,0-5.419,3.484q5.741,5.675,11.483,11.353" transform="translate(16.665 8.299)" fill="#94cc00"/>
        <path id="Path_41831" data-name="Path 41831" d="M49.775,47.764s10.065-21.548-7.87-21.548-8.644,21.548-8.644,21.548S25,51.634,24.616,58.472a78.763,78.763,0,0,0,0,10.838s-.141,4.774,4.769,4.774H55.841a4.649,4.649,0,0,0,4.386-4.774V58.731s-.9-9.806-10.451-10.967M37.906,35.634a4.237,4.237,0,0,1,8,0v6.838a4.2,4.2,0,0,1-8,0ZM52.872,67.5H30.68v-8a7.444,7.444,0,0,1,6.193-5.678H47.066a8.149,8.149,0,0,1,5.807,6.452Z" transform="translate(1.689 0.47)" fill="#94cc00"/>
        <path id="Path_41832" data-name="Path 41832" d="M87.248,83.926s10.065-21.548-7.87-21.548-8.644,21.548-8.644,21.548-8.259,3.87-8.646,10.708a78.76,78.76,0,0,0,0,10.838s-.141,4.774,4.769,4.774H93.314a4.649,4.649,0,0,0,4.386-4.774V94.893s-.9-9.806-10.451-10.967M75.379,71.8a4.237,4.237,0,0,1,8,0v6.838a4.2,4.2,0,0,1-8,0Zm14.966,31.87H68.153v-8a7.444,7.444,0,0,1,6.193-5.678H84.539a8.149,8.149,0,0,1,5.807,6.452Z" transform="translate(27.991 25.852)" fill="#94cc00"/>
      </g>
    </g>
  </g>
</svg>
