<svg xmlns="http://www.w3.org/2000/svg" xmlns:xlink="http://www.w3.org/1999/xlink" width="182.762" height="198.509" viewBox="0 0 182.762 198.509">
  <defs>
    <clipPath id="clip-path">
      <rect id="Rectangle_341" data-name="Rectangle 341" width="182.762" height="198.509" fill="none"/>
    </clipPath>
    <clipPath id="clip-path-2">
      <path id="Path_41814" data-name="Path 41814" d="M64.761,15.919,29.33,36.374A40.48,40.48,0,0,0,9.089,71.431v40.912A40.481,40.481,0,0,0,29.33,147.4l35.432,20.455a40.481,40.481,0,0,0,40.481,0L140.671,147.4a40.481,40.481,0,0,0,20.241-35.059V71.431a40.48,40.48,0,0,0-20.241-35.057L105.243,15.919a40.478,40.478,0,0,0-40.481,0" transform="translate(-9.089 -10.495)" fill="none"/>
    </clipPath>
  </defs>
  <g id="Group_390" data-name="Group 390" opacity="0.391">
    <g id="Group_387" data-name="Group 387">
      <g id="Group_386" data-name="Group 386" clip-path="url(#clip-path)">
        <path id="Path_41806" data-name="Path 41806" d="M182.762,128.641V69.868A40.482,40.482,0,0,0,162.521,34.81l-50.9-29.387a40.481,40.481,0,0,0-40.481,0L20.241,34.81A40.482,40.482,0,0,0,0,69.868v58.773A40.482,40.482,0,0,0,20.241,163.7l50.9,29.387a40.481,40.481,0,0,0,40.481,0l50.9-29.387a40.482,40.482,0,0,0,20.241-35.057" transform="translate(0 0)" fill="#ea372d"/>
        <path id="Path_41807" data-name="Path 41807" d="M160.913,112.343V71.431A40.484,40.484,0,0,0,140.67,36.374L105.242,15.919a40.484,40.484,0,0,0-40.483,0L29.329,36.374A40.477,40.477,0,0,0,9.09,71.431v40.912A40.477,40.477,0,0,0,29.329,147.4l35.43,20.457a40.484,40.484,0,0,0,40.483,0L140.67,147.4a40.484,40.484,0,0,0,20.242-35.057" transform="translate(6.38 7.367)" fill="#fff"/>
      </g>
    </g>
    <g id="Group_389" data-name="Group 389" transform="translate(15.469 17.861)">
      <g id="Group_388" data-name="Group 388" clip-path="url(#clip-path-2)">
        <path id="Path_41808" data-name="Path 41808" d="M116.941,97.613a128.841,128.841,0,0,1-40.068,49.18A125.764,125.764,0,0,1,27.091,44.083a96.092,96.092,0,0,1,51.516-16.51,103.952,103.952,0,0,1,50.131,17.38,128.612,128.612,0,0,1-11.8,52.66M135.5,41.478A123.066,123.066,0,0,0,79.127,20.97a128.311,128.311,0,0,0-58.8,19.64A139.08,139.08,0,0,0,74.271,154.092a2.971,2.971,0,0,0,2.083,1.389,2.882,2.882,0,0,0,2.772-1.389c10.533-7.378,34.521-26.357,47.7-60.3A130.832,130.832,0,0,0,135.5,41.478" transform="translate(-1.229 -3.143)" fill="#ea372d"/>
        <path id="Path_41809" data-name="Path 41809" d="M73.235,37.561V34.956a3.513,3.513,0,0,0-6.939,0v2.606A88.325,88.325,0,0,0,35.422,42.6a3.318,3.318,0,0,0,1.562,6.43,71.479,71.479,0,0,1,29.138-4.862v58.392H60.052c-2.527-.245-4.5,1.3-4.684,2.779-.2,1.646,1.721,3.911,4.684,3.824H76.531c3.009.148,5.026-2.132,4.856-3.824-.155-1.55-2.207-3.222-4.856-2.954h-5.2l1.733-58.217A69.611,69.611,0,0,1,100.642,49.2a3.263,3.263,0,1,0,2.948-5.735,85.144,85.144,0,0,0-30.355-5.907" transform="translate(7.787 4.596)" fill="#ea372d"/>
        <path id="Path_41810" data-name="Path 41810" d="M59.049,61.683a3.745,3.745,0,0,0,1.562,3.475,3.955,3.955,0,0,0,3.662.349q4.235-6.086,8.477-12.167l7.807,12.167a3.111,3.111,0,0,0,4.161.174,3.157,3.157,0,0,0,.694-2.779q-4.945-8.866-9.885-17.729a3.226,3.226,0,0,0-5.725,0q-5.374,8.256-10.754,16.51" transform="translate(25.962 12.625)" fill="#ea372d"/>
        <path id="Path_41811" data-name="Path 41811" d="M65.864,59.657a3.3,3.3,0,0,0-5.9,2.954,13.956,13.956,0,0,0,12.317,6.951,14.274,14.274,0,0,0,10.405-5.387,3.075,3.075,0,1,0-4.161-4.519,8.158,8.158,0,0,1-6.593,3.3,8.064,8.064,0,0,1-6.069-3.3" transform="translate(26.431 22.819)" fill="#ea372d"/>
        <path id="Path_41812" data-name="Path 41812" d="M33.647,61.683a3.745,3.745,0,0,0,1.562,3.475,3.955,3.955,0,0,0,3.662.349q4.235-6.086,8.477-12.167l7.807,12.167a3.111,3.111,0,0,0,4.161.174,3.157,3.157,0,0,0,.694-2.779q-4.945-8.866-9.885-17.729a3.226,3.226,0,0,0-5.725,0q-5.374,8.256-10.754,16.51" transform="translate(8.133 12.625)" fill="#ea372d"/>
        <path id="Path_41813" data-name="Path 41813" d="M40.463,59.657a3.3,3.3,0,0,0-5.9,2.954,13.956,13.956,0,0,0,12.317,6.951,14.274,14.274,0,0,0,10.405-5.387,3.075,3.075,0,1,0-4.161-4.519,8.158,8.158,0,0,1-6.593,3.3,8.064,8.064,0,0,1-6.069-3.3" transform="translate(8.602 22.819)" fill="#ea372d"/>
      </g>
    </g>
  </g>
</svg>
