<svg id="Group_515" data-name="Group 515" xmlns="http://www.w3.org/2000/svg" width="29.266" height="28.481" viewBox="0 0 29.266 28.481">
  <path id="Path_41986" data-name="Path 41986" d="M171.734,148.735c.058.062.117.125.175.192a10.588,10.588,0,0,1,1.763,3.263,24.042,24.042,0,0,1,1,3.794,16.322,16.322,0,0,0,2.888-1.154q.405-.212.791-.442a12.052,12.052,0,0,0-4.63-4.847,8.949,8.949,0,0,0-1.986-.807" transform="translate(-154.903 -148.441)" fill="#0c5db8"/>
  <g id="Group_515-2" data-name="Group 515">
    <path id="Path_41968" data-name="Path 41968" d="M144.824,152.573a14.233,14.233,0,0,0-1.176,1.815,15.862,15.862,0,0,0,3.678,1.6c.042-.227.083-.452.13-.673a17.75,17.75,0,0,1,1.9-5.358,6.884,6.884,0,0,1,.9-1.216,8.9,8.9,0,0,0-1.985.806,11.242,11.242,0,0,0-3.451,3.03" transform="translate(-137.827 -148.443)" fill="#0c5db8"/>
    <path id="Path_41969" data-name="Path 41969" d="M154.039,169.545a37.232,37.232,0,0,0-.434,5.386h9.816a36.955,36.955,0,0,0-.434-5.386,19.33,19.33,0,0,1-8.948,0" transform="translate(-143.881 -161.094)" fill="#0c5db8"/>
    <path id="Path_41970" data-name="Path 41970" d="M158.372,190.157a19.065,19.065,0,0,1,4.62.561,36.806,36.806,0,0,0,.433-5.379h-9.816a37.337,37.337,0,0,0,.421,5.314,19.091,19.091,0,0,1,4.342-.5" transform="translate(-143.883 -170.696)" fill="#0c5db8"/>
    <path id="Path_41971" data-name="Path 41971" d="M138.477,172.021H143.6a37.566,37.566,0,0,1,.459-5.594,16.979,16.979,0,0,1-3.1-1.229c-.269-.139-.53-.286-.787-.439a17.428,17.428,0,0,0-1.7,7.262" transform="translate(-134.683 -158.184)" fill="#0c5db8"/>
    <path id="Path_41972" data-name="Path 41972" d="M140.125,192.5a16.807,16.807,0,0,1,3.916-1.653,38.5,38.5,0,0,1-.443-5.511h-5.127a17.458,17.458,0,0,0,1.654,7.164" transform="translate(-134.68 -170.697)" fill="#0c5db8"/>
    <path id="Path_41973" data-name="Path 41973" d="M160.247,148.231a1.681,1.681,0,0,0-1.747,0,3.49,3.49,0,0,0-.891.765,9.872,9.872,0,0,0-1.616,3.013,23.2,23.2,0,0,0-.974,3.73,18.589,18.589,0,0,0,8.711,0c-.045-.244-.092-.485-.139-.72a17.051,17.051,0,0,0-1.808-5.11,4.556,4.556,0,0,0-1.535-1.679" transform="translate(-144.74 -147.986)" fill="#0c5db8"/>
    <path id="Path_41974" data-name="Path 41974" d="M155.133,200.709a17.058,17.058,0,0,0,1.805,5.111,4.585,4.585,0,0,0,1.538,1.679,1.674,1.674,0,0,0,1.746,0,3.44,3.44,0,0,0,.89-.765,9.876,9.876,0,0,0,1.616-3.013,23.206,23.206,0,0,0,.976-3.735,18.537,18.537,0,0,0-8.726-.069c.049.27.1.535.154.793" transform="translate(-144.716 -179.263)" fill="#0c5db8"/>
    <path id="Path_41975" data-name="Path 41975" d="M140.856,208.286a14.877,14.877,0,0,1-1.275-1.975,13.222,13.222,0,0,0-1.41,1.083,14.647,14.647,0,0,0,6.726,4.312c-.114-.056-.228-.113-.339-.174a12.025,12.025,0,0,1-3.7-3.246" transform="translate(-134.497 -183.447)" fill="#0c5db8"/>
    <path id="Path_41976" data-name="Path 41976" d="M172.642,207.429a7.063,7.063,0,0,1-.9,1.216,9.03,9.03,0,0,0,1.984-.806,11.2,11.2,0,0,0,3.451-3.031,13.824,13.824,0,0,0,1.158-1.784,15.843,15.843,0,0,0-3.659-1.627c-.041.228-.085.452-.131.673a17.869,17.869,0,0,1-1.9,5.358" transform="translate(-154.907 -180.46)" fill="#0c5db8"/>
    <path id="Path_41977" data-name="Path 41977" d="M139.122,153.376c.208.161.425.313.646.464a12.812,12.812,0,0,1,4.921-5.116c.112-.062.225-.117.339-.175a14.65,14.65,0,0,0-6.641,4.214c.235.211.478.416.735.613" transform="translate(-134.628 -148.328)" fill="#0c5db8"/>
    <path id="Path_41978" data-name="Path 41978" d="M132.019,194.106c.226-.2.459-.394.7-.581.27-.207.552-.4.841-.593a18.24,18.24,0,0,1-1.773-7.592H128.8a14.572,14.572,0,0,0,3.22,8.766" transform="translate(-128.799 -170.697)" fill="#0c5db8"/>
    <path id="Path_41979" data-name="Path 41979" d="M177.267,148.724a12.024,12.024,0,0,1,3.7,3.245,15.006,15.006,0,0,1,1.217,1.873,13.251,13.251,0,0,0,1.384-1.077,14.637,14.637,0,0,0-6.641-4.216c.114.058.228.113.339.175" transform="translate(-158.061 -148.328)" fill="#0c5db8"/>
    <path id="Path_41980" data-name="Path 41980" d="M147.225,201.191a16.259,16.259,0,0,0-3.017,1.192c-.237.122-.47.253-.7.387a12.094,12.094,0,0,0,4.681,4.944,8.909,8.909,0,0,0,1.989.807c-.06-.063-.12-.125-.178-.192a10.611,10.611,0,0,1-1.761-3.264,24.191,24.191,0,0,1-1.016-3.874" transform="translate(-137.743 -180.334)" fill="#0c5db8"/>
    <path id="Path_41981" data-name="Path 41981" d="M191.173,161.836a18.2,18.2,0,0,1,1.825,7.7h2.99a14.6,14.6,0,0,0-3.3-8.867c-.247.22-.5.434-.765.639-.242.184-.492.36-.751.533" transform="translate(-166.722 -155.694)" fill="#0c5db8"/>
    <path id="Path_41982" data-name="Path 41982" d="M192.627,194.255a14.587,14.587,0,0,0,3.337-8.915h-2.987a18.21,18.21,0,0,1-1.844,7.736,13.619,13.619,0,0,1,1.494,1.18" transform="translate(-166.698 -170.697)" fill="#0c5db8"/>
    <path id="Path_41983" data-name="Path 41983" d="M131.786,169.532a18.223,18.223,0,0,1,1.824-7.694,14.069,14.069,0,0,1-1.513-1.172,14.577,14.577,0,0,0-3.3,8.866Z" transform="translate(-128.799 -155.695)" fill="#0c5db8"/>
    <path id="Path_41984" data-name="Path 41984" d="M182.482,192.119c.314.161.62.334.915.514a17.442,17.442,0,0,0,1.719-7.293h-5.129a37.645,37.645,0,0,1-.456,5.592,16.647,16.647,0,0,1,2.951,1.187" transform="translate(-159.644 -170.697)" fill="#0c5db8"/>
    <path id="Path_41985" data-name="Path 41985" d="M177.267,211.754c-.111.061-.225.118-.339.174a14.653,14.653,0,0,0,6.6-4.167c-.267-.243-.545-.479-.838-.7-.17-.129-.345-.258-.524-.38a12.813,12.813,0,0,1-4.9,5.078" transform="translate(-158.061 -183.669)" fill="#0c5db8"/>
    <path id="Path_41987" data-name="Path 41987" d="M179.993,172.016h5.128a17.45,17.45,0,0,0-1.7-7.264,16.565,16.565,0,0,1-3.881,1.669,37.914,37.914,0,0,1,.457,5.6" transform="translate(-159.647 -158.18)" fill="#0c5db8"/>
  </g>
</svg>
