<svg xmlns="http://www.w3.org/2000/svg" xmlns:xlink="http://www.w3.org/1999/xlink" width="182.762" height="198.509" viewBox="0 0 182.762 198.509">
  <defs>
    <clipPath id="clip-path">
      <rect id="Rectangle_345" data-name="Rectangle 345" width="182.762" height="198.509" fill="none"/>
    </clipPath>
    <clipPath id="clip-path-2">
      <path id="Path_41854" data-name="Path 41854" d="M64.761,15.878,29.33,36.335A40.478,40.478,0,0,0,9.089,71.392V112.3A40.478,40.478,0,0,0,29.33,147.362l35.432,20.457a40.489,40.489,0,0,0,40.481,0l35.428-20.457A40.478,40.478,0,0,0,160.912,112.3V71.392a40.478,40.478,0,0,0-20.241-35.057L105.243,15.878a40.489,40.489,0,0,0-40.481,0" transform="translate(-9.089 -10.456)" fill="none"/>
    </clipPath>
  </defs>
  <g id="Group_410" data-name="Group 410" opacity="0.391">
    <g id="Group_407" data-name="Group 407">
      <g id="Group_406" data-name="Group 406" clip-path="url(#clip-path)">
        <path id="Path_41850" data-name="Path 41850" d="M182.762,128.641V69.868A40.482,40.482,0,0,0,162.521,34.81l-50.9-29.387a40.481,40.481,0,0,0-40.481,0L20.241,34.81A40.482,40.482,0,0,0,0,69.868v58.773A40.482,40.482,0,0,0,20.241,163.7l50.9,29.387a40.481,40.481,0,0,0,40.481,0l50.9-29.387a40.482,40.482,0,0,0,20.241-35.057" transform="translate(0 0)" fill="#5a4494"/>
        <path id="Path_41851" data-name="Path 41851" d="M160.913,112.343V71.431A40.484,40.484,0,0,0,140.67,36.374L105.242,15.919a40.484,40.484,0,0,0-40.483,0L29.329,36.374A40.477,40.477,0,0,0,9.09,71.431v40.912A40.477,40.477,0,0,0,29.329,147.4l35.43,20.457a40.484,40.484,0,0,0,40.483,0L140.67,147.4a40.484,40.484,0,0,0,20.242-35.057" transform="translate(6.38 7.367)" fill="#fff"/>
        <path id="Path_41852" data-name="Path 41852" d="M160.913,112.343V71.431A40.484,40.484,0,0,0,140.67,36.374L105.242,15.919a40.484,40.484,0,0,0-40.483,0L29.329,36.374A40.477,40.477,0,0,0,9.09,71.431v40.912A40.477,40.477,0,0,0,29.329,147.4l35.43,20.457a40.484,40.484,0,0,0,40.483,0L140.67,147.4A40.484,40.484,0,0,0,160.913,112.343Z" transform="translate(6.38 7.367)" fill="none" stroke="#1a1818" stroke-miterlimit="10" stroke-width="0.193"/>
      </g>
    </g>
    <g id="Group_409" data-name="Group 409" transform="translate(15.469 17.795)">
      <g id="Group_408" data-name="Group 408" clip-path="url(#clip-path-2)">
        <path id="Path_41853" data-name="Path 41853" d="M12.2,112.484,50.541,77.377a9.9,9.9,0,0,1,11.369-1.253,9.815,9.815,0,0,1,4.316,6.731v22.407l52.287-47.8H101.332a6.282,6.282,0,0,1-1.494-12.2q19.049.623,38.1,1.244L136.19,82.108a5.33,5.33,0,0,1-3.984,5.228,5.4,5.4,0,0,1-6.224-4.481V66.174L73.2,116.218c-.179.213-4.1,4.721-9.96,3.736a11.138,11.138,0,0,1-7.718-5.727q.123-13.071.248-26.143L21.161,121.448Z" transform="translate(-6.908 13.972)" fill="#5a4494"/>
      </g>
    </g>
  </g>
</svg>
