<svg xmlns="http://www.w3.org/2000/svg" xmlns:xlink="http://www.w3.org/1999/xlink" width="182.762" height="198.509" viewBox="0 0 182.762 198.509">
  <defs>
    <clipPath id="clip-path">
      <rect id="Rectangle_344" data-name="Rectangle 344" width="182.762" height="198.509" fill="none"/>
    </clipPath>
    <clipPath id="clip-path-2">
      <path id="Path_41849" data-name="Path 41849" d="M65.194,15.485,29.764,35.942A40.48,40.48,0,0,0,9.523,71v40.912a40.482,40.482,0,0,0,20.241,35.057l35.43,20.455a40.481,40.481,0,0,0,40.481,0l35.43-20.455a40.48,40.48,0,0,0,20.242-35.057V71a40.478,40.478,0,0,0-20.242-35.057l-35.43-20.457a40.478,40.478,0,0,0-40.481,0" transform="translate(-9.523 -10.061)" fill="none"/>
    </clipPath>
  </defs>
  <g id="Group_405" data-name="Group 405" opacity="0.391">
    <g id="Group_402" data-name="Group 402">
      <g id="Group_401" data-name="Group 401" clip-path="url(#clip-path)">
        <path id="Path_41834" data-name="Path 41834" d="M135.094,71.41a58.133,58.133,0,1,0,.322,16.319s1.1-5.581-.322-16.319" transform="translate(13.787 15.894)" fill="#fff"/>
        <path id="Path_41835" data-name="Path 41835" d="M135.094,71.41a58.133,58.133,0,1,0,.322,16.319S136.518,82.149,135.094,71.41Z" transform="translate(13.787 15.894)" fill="none" stroke="#fff" stroke-miterlimit="10" stroke-width="9.484"/>
        <path id="Path_41836" data-name="Path 41836" d="M63.569,31.233a20.6,20.6,0,0,1,18.28,0l26.589,15.312a23.662,23.662,0,0,1,9.97,16.617l-.95,30.151a17.963,17.963,0,0,1-10.089,14.362q-13.117,7-26.233,14.007a17.278,17.278,0,0,1-17.092,0l-27.775-14.6a16.91,16.91,0,0,1-8.31-14.718q-.534-15.611-1.067-31.218a18.129,18.129,0,0,1,9.139-14.6L63.569,31.233" transform="translate(18.875 20.421)" fill="#fff"/>
        <path id="Path_41837" data-name="Path 41837" d="M63.569,31.233a20.6,20.6,0,0,1,18.28,0l26.589,15.312a23.662,23.662,0,0,1,9.97,16.617l-.95,30.151a17.963,17.963,0,0,1-10.089,14.362q-13.117,7-26.233,14.007a17.278,17.278,0,0,1-17.092,0l-27.775-14.6a16.91,16.91,0,0,1-8.31-14.718q-.534-15.611-1.067-31.218a18.129,18.129,0,0,1,9.139-14.6Z" transform="translate(18.875 20.421)" fill="none" stroke="#fff" stroke-miterlimit="10" stroke-width="9.484"/>
        <path id="Path_41838" data-name="Path 41838" d="M61.765,35.972a16.8,16.8,0,0,1,14.914,0L98.369,48.464A19.3,19.3,0,0,1,106.5,62.021l-.774,24.6A14.657,14.657,0,0,1,97.5,98.334L76.1,109.763a14.094,14.094,0,0,1-13.944,0L39.492,97.851a13.8,13.8,0,0,1-6.779-12.009q-.437-12.734-.871-25.467A14.8,14.8,0,0,1,39.3,48.464L61.765,35.972" transform="translate(22.35 24.023)" fill="#fff"/>
        <path id="Path_41839" data-name="Path 41839" d="M61.765,35.972a16.8,16.8,0,0,1,14.914,0L98.369,48.464A19.3,19.3,0,0,1,106.5,62.021l-.774,24.6A14.657,14.657,0,0,1,97.5,98.334L76.1,109.763a14.094,14.094,0,0,1-13.944,0L39.492,97.851a13.8,13.8,0,0,1-6.779-12.009q-.437-12.734-.871-25.467A14.8,14.8,0,0,1,39.3,48.464Z" transform="translate(22.35 24.023)" fill="none" stroke="#fff" stroke-miterlimit="10" stroke-width="9.484"/>
        <path id="Path_41840" data-name="Path 41840" d="M58.034,78.934l-.451.252c.182-.09.349-.175.5-.255l-.044,0" transform="translate(40.417 55.401)" fill="#fff"/>
        <path id="Path_41841" data-name="Path 41841" d="M58.034,78.934l-.451.252c.182-.09.349-.175.5-.255Z" transform="translate(40.417 55.401)" fill="none" stroke="#fff" stroke-miterlimit="10" stroke-width="9.484"/>
        <path id="Path_41842" data-name="Path 41842" d="M106.054,82.422a.769.769,0,0,1-.126-.037v.007l-12.392-.378q.237-6.385.473-12.769a4.345,4.345,0,0,0,3.424-2.835,4.249,4.249,0,0,0-.208-3.029,3.635,3.635,0,0,0,0-5.958A3.934,3.934,0,0,0,95.9,52.6a3.912,3.912,0,0,0-.757-2.648V44.96l-2.721-1.567-.4,4.947H81.9V37.334q-1.608-.927-3.217-1.852V48.34q-6.574-.235-13.147-.473a4.667,4.667,0,0,0-6.149-3.688,3.872,3.872,0,0,0-5.674.473,4.4,4.4,0,0,0-5.051,1.607,2.339,2.339,0,0,0-1.556.162,2.3,2.3,0,0,0-.96.88l-6.711-.23L39.2,47.2a15.142,15.142,0,0,0-3.6,2.854l8.9.356.441,10.468H32.27V60.84c-.189,0-.378,0-.567,0l.112,3.283c.049.007.1.014.146.022v-.009H44.825l.38,12.676a4.515,4.515,0,0,0-3.594,6.147,3.762,3.762,0,0,0-1.183,2.832,3.893,3.893,0,0,0,1.938,3.033,3.232,3.232,0,0,0-.488,2.138,3.334,3.334,0,0,0,1.53,2.308q.71,1.465,1.418,2.932v3.31l-.043-.024c.005.189,0,.38-.009.57l3.009,1.581a.24.24,0,0,1,.005-.218l-.031-.017V97.431h9.932v9.415l2.466,1.3.466-10.71h12.3a4.29,4.29,0,0,0,2.367,3.133,4.17,4.17,0,0,0,3.4-.107,3.448,3.448,0,0,0,5.581-.189,3.656,3.656,0,0,0,2.844.174,3.579,3.579,0,0,0,1.79-1.5A2.838,2.838,0,0,0,91.646,98h5.012l-.044.026c.313.02.625-.005.938.022l.606-.323a14.994,14.994,0,0,0,3.834-2.657H93.065V85.135h12.39l0,.017c.356-.007.708-.049,1.062-.073l.082-2.606a2.356,2.356,0,0,1-.548-.051M48.325,50.634a2.045,2.045,0,0,0,2.081.441c.526-.213.619-.7.788-1.292a13.554,13.554,0,0,1,.252-1.45.888.888,0,0,1,.851-.347.871.871,0,0,1,.536.347L52.8,49.594a1.572,1.572,0,0,0,1.8,1.166,1.543,1.543,0,0,0,1.135-1.324q.125-.978.252-1.955A.92.92,0,0,1,57,46.692a.908.908,0,0,1,.725.788v1.8a1.534,1.534,0,0,0,2.958.032v-1.23a.807.807,0,1,1,1.613-.031c.015.64.029,1.693,0,3-.153,6.717-1.236,8.627.155,10.57a12.891,12.891,0,0,0,3.472,2.83,1.142,1.142,0,0,1,.283.819,1.12,1.12,0,0,1-.283.662l-4.193,1.293a4.565,4.565,0,0,0-3.69,1.923,3.709,3.709,0,0,0-.5,1.8q-.033,2.571-.065,5.14a2.175,2.175,0,0,1-2.175,1.7q-3.768-.424-7.536-.851Zm20.646,13.5,2.965.466q.85,2.869,1.7,5.739a3.838,3.838,0,0,0,2.585,2.795H78.4V75.89q-2.6.567-5.206,1.135a4.348,4.348,0,0,0-2.776,1.639,4.4,4.4,0,0,0-.756,3.468l-2.839-.31L65.188,76.3a3.232,3.232,0,0,0-2.711-2.74l-1.955-.38-.373-2.333,6.426-1.828a3.512,3.512,0,0,0,2.4-4.881m5.361,23.074q-.426,3.768-.851,7.536l-26.3-.568a2.049,2.049,0,0,0,.442-2.081c-.214-.526-.7-.619-1.293-.788a13.634,13.634,0,0,1-1.45-.252.891.891,0,0,1-.347-.851.871.871,0,0,1,.347-.536l1.261.031a1.574,1.574,0,0,0,1.168-1.8,1.543,1.543,0,0,0-1.326-1.135q-.975-.125-1.954-.252a.919.919,0,0,1-.788-1.009.906.906,0,0,1,.788-.725h1.8a1.587,1.587,0,0,0,1.135-1.639,1.571,1.571,0,0,0-1.1-1.319H44.631A.807.807,0,1,1,44.6,80.21c.64-.015,1.7-.031,3,0,6.717.153,8.627,1.236,10.572-.155a12.871,12.871,0,0,0,2.829-3.472,1.148,1.148,0,0,1,.82-.283,1.12,1.12,0,0,1,.662.283q.646,2.1,1.292,4.193a4.575,4.575,0,0,0,1.925,3.69,3.708,3.708,0,0,0,1.8.5q2.568.033,5.138.063a2.178,2.178,0,0,1,1.7,2.177m15.9,8.04a2.045,2.045,0,0,0-2.081-.441c-.526.213-.619.7-.788,1.292a13.554,13.554,0,0,1-.252,1.45.888.888,0,0,1-.851.347.871.871,0,0,1-.536-.347l.031-1.261a1.572,1.572,0,0,0-1.8-1.166,1.543,1.543,0,0,0-1.135,1.324q-.125.978-.252,1.955a.92.92,0,0,1-1.009.788.908.908,0,0,1-.725-.788v-1.8a1.534,1.534,0,0,0-2.958-.032V97.8a.807.807,0,1,1-1.613.031c-.015-.64-.031-1.7,0-3,.153-6.717,1.236-8.627-.155-10.572a12.908,12.908,0,0,0-3.472-2.829,1.142,1.142,0,0,1-.283-.819,1.12,1.12,0,0,1,.283-.662l4.193-1.293a4.572,4.572,0,0,0,3.69-1.923,3.709,3.709,0,0,0,.5-1.8q.033-2.571.063-5.14a2.233,2.233,0,0,1,.853-1.293,2.2,2.2,0,0,1,1.324-.408q3.768.424,7.536.851Zm1.537-29.056c-6.717-.153-8.627-1.237-10.572.155a12.908,12.908,0,0,0-2.829,3.472,1.106,1.106,0,0,1-1.482,0q-.646-2.1-1.292-4.193a4.57,4.57,0,0,0-1.923-3.69,3.733,3.733,0,0,0-1.8-.505q-2.571-.031-5.14-.063a2.17,2.17,0,0,1-1.7-2.175q.424-3.768.851-7.536l26.3.568a2.049,2.049,0,0,0-.442,2.081c.214.526.7.619,1.293.788a13.554,13.554,0,0,1,1.45.252.888.888,0,0,1,.347.851.871.871,0,0,1-.347.536L93.223,56.7a1.572,1.572,0,0,0-1.166,1.8,1.539,1.539,0,0,0,1.324,1.133l1.954.254a.92.92,0,0,1,.79,1.009.908.908,0,0,1-.79.725h-1.8A1.585,1.585,0,0,0,92.4,63.26a1.567,1.567,0,0,0,1.1,1.317h1.229a.808.808,0,1,1,.032,1.615c-.64.015-1.7.029-3,0" transform="translate(22.252 24.905)" fill="#fff"/>
        <path id="Path_41843" data-name="Path 41843" d="M106.054,82.422a.769.769,0,0,1-.126-.037v.007l-12.392-.378q.237-6.385.473-12.769a4.345,4.345,0,0,0,3.424-2.835,4.249,4.249,0,0,0-.208-3.029,3.635,3.635,0,0,0,0-5.958A3.934,3.934,0,0,0,95.9,52.6a3.912,3.912,0,0,0-.757-2.648V44.96l-2.721-1.567-.4,4.947H81.9V37.334q-1.608-.927-3.217-1.852V48.34q-6.574-.235-13.147-.473a4.667,4.667,0,0,0-6.149-3.688,3.872,3.872,0,0,0-5.674.473,4.4,4.4,0,0,0-5.051,1.607,2.339,2.339,0,0,0-1.556.162,2.3,2.3,0,0,0-.96.88l-6.711-.23L39.2,47.2a15.142,15.142,0,0,0-3.6,2.854l8.9.356.441,10.468H32.27V60.84c-.189,0-.378,0-.567,0l.112,3.283c.049.007.1.014.146.022v-.009H44.825l.38,12.676a4.515,4.515,0,0,0-3.594,6.147,3.762,3.762,0,0,0-1.183,2.832,3.893,3.893,0,0,0,1.938,3.033,3.232,3.232,0,0,0-.488,2.138,3.334,3.334,0,0,0,1.53,2.308q.71,1.465,1.418,2.932v3.31l-.043-.024c.005.189,0,.38-.009.57l3.009,1.581a.24.24,0,0,1,.005-.218l-.031-.017V97.431h9.932v9.415l2.466,1.3.466-10.71h12.3a4.29,4.29,0,0,0,2.367,3.133,4.17,4.17,0,0,0,3.4-.107,3.448,3.448,0,0,0,5.581-.189,3.656,3.656,0,0,0,2.844.174,3.579,3.579,0,0,0,1.79-1.5A2.838,2.838,0,0,0,91.646,98h5.012l-.044.026c.313.02.625-.005.938.022l.606-.323a14.994,14.994,0,0,0,3.834-2.657H93.065V85.135h12.39l0,.017c.356-.007.708-.049,1.062-.073l.082-2.606A2.356,2.356,0,0,1,106.054,82.422ZM48.325,50.634a2.045,2.045,0,0,0,2.081.441c.526-.213.619-.7.788-1.292a13.554,13.554,0,0,1,.252-1.45.888.888,0,0,1,.851-.347.871.871,0,0,1,.536.347L52.8,49.594a1.572,1.572,0,0,0,1.8,1.166,1.543,1.543,0,0,0,1.135-1.324q.125-.978.252-1.955A.92.92,0,0,1,57,46.692a.908.908,0,0,1,.725.788v1.8a1.534,1.534,0,0,0,2.958.032v-1.23a.807.807,0,1,1,1.613-.031c.015.64.029,1.693,0,3-.153,6.717-1.236,8.627.155,10.57a12.891,12.891,0,0,0,3.472,2.83,1.142,1.142,0,0,1,.283.819,1.12,1.12,0,0,1-.283.662l-4.193,1.293a4.565,4.565,0,0,0-3.69,1.923,3.709,3.709,0,0,0-.5,1.8q-.033,2.571-.065,5.14a2.175,2.175,0,0,1-2.175,1.7q-3.768-.424-7.536-.851Zm20.646,13.5,2.965.466q.85,2.869,1.7,5.739a3.838,3.838,0,0,0,2.585,2.795H78.4V75.89q-2.6.567-5.206,1.135a4.348,4.348,0,0,0-2.776,1.639,4.4,4.4,0,0,0-.756,3.468l-2.839-.31L65.188,76.3a3.232,3.232,0,0,0-2.711-2.74l-1.955-.38-.373-2.333,6.426-1.828a3.512,3.512,0,0,0,2.4-4.881Zm5.361,23.074q-.426,3.768-.851,7.536l-26.3-.568a2.049,2.049,0,0,0,.442-2.081c-.214-.526-.7-.619-1.293-.788a13.634,13.634,0,0,1-1.45-.252.891.891,0,0,1-.347-.851.871.871,0,0,1,.347-.536l1.261.031a1.574,1.574,0,0,0,1.168-1.8,1.543,1.543,0,0,0-1.326-1.135q-.975-.125-1.954-.252a.919.919,0,0,1-.788-1.009.906.906,0,0,1,.788-.725h1.8a1.587,1.587,0,0,0,1.135-1.639,1.571,1.571,0,0,0-1.1-1.319H44.631A.807.807,0,1,1,44.6,80.21c.64-.015,1.7-.031,3,0,6.717.153,8.627,1.236,10.572-.155a12.871,12.871,0,0,0,2.829-3.472,1.148,1.148,0,0,1,.82-.283,1.12,1.12,0,0,1,.662.283q.646,2.1,1.292,4.193a4.575,4.575,0,0,0,1.925,3.69,3.708,3.708,0,0,0,1.8.5q2.568.033,5.138.063a2.178,2.178,0,0,1,1.7,2.177Zm15.9,8.04a2.045,2.045,0,0,0-2.081-.441c-.526.213-.619.7-.788,1.292a13.554,13.554,0,0,1-.252,1.45.888.888,0,0,1-.851.347.871.871,0,0,1-.536-.347l.031-1.261a1.572,1.572,0,0,0-1.8-1.166,1.543,1.543,0,0,0-1.135,1.324q-.125.978-.252,1.955a.92.92,0,0,1-1.009.788.908.908,0,0,1-.725-.788v-1.8a1.534,1.534,0,0,0-2.958-.032V97.8a.807.807,0,1,1-1.613.031c-.015-.64-.031-1.7,0-3,.153-6.717,1.236-8.627-.155-10.572a12.908,12.908,0,0,0-3.472-2.829,1.142,1.142,0,0,1-.283-.819,1.12,1.12,0,0,1,.283-.662l4.193-1.293a4.572,4.572,0,0,0,3.69-1.923,3.709,3.709,0,0,0,.5-1.8q.033-2.571.063-5.14a2.233,2.233,0,0,1,.853-1.293,2.2,2.2,0,0,1,1.324-.408q3.768.424,7.536.851Zm1.537-29.056c-6.717-.153-8.627-1.237-10.572.155a12.908,12.908,0,0,0-2.829,3.472,1.106,1.106,0,0,1-1.482,0q-.646-2.1-1.292-4.193a4.57,4.57,0,0,0-1.923-3.69,3.733,3.733,0,0,0-1.8-.505q-2.571-.031-5.14-.063a2.17,2.17,0,0,1-1.7-2.175q.424-3.768.851-7.536l26.3.568a2.049,2.049,0,0,0-.442,2.081c.214.526.7.619,1.293.788a13.554,13.554,0,0,1,1.45.252.888.888,0,0,1,.347.851.871.871,0,0,1-.347.536L93.223,56.7a1.572,1.572,0,0,0-1.166,1.8,1.539,1.539,0,0,0,1.324,1.133l1.954.254a.92.92,0,0,1,.79,1.009.908.908,0,0,1-.79.725h-1.8A1.585,1.585,0,0,0,92.4,63.26a1.567,1.567,0,0,0,1.1,1.317h1.229a.808.808,0,1,1,.032,1.615C94.129,66.208,93.073,66.222,91.773,66.193Z" transform="translate(22.252 24.905)" fill="none" stroke="#fff" stroke-miterlimit="10" stroke-width="9.484"/>
        <path id="Path_41844" data-name="Path 41844" d="M182.762,128.641V69.868A40.482,40.482,0,0,0,162.521,34.81l-50.9-29.387a40.481,40.481,0,0,0-40.481,0L20.241,34.81A40.482,40.482,0,0,0,0,69.868v58.773A40.482,40.482,0,0,0,20.241,163.7l50.9,29.387a40.481,40.481,0,0,0,40.481,0l50.9-29.387a40.482,40.482,0,0,0,20.241-35.057" transform="translate(0 0)" fill="#004cac"/>
        <path id="Path_41845" data-name="Path 41845" d="M160.913,112.343V71.431A40.484,40.484,0,0,0,140.67,36.374L105.242,15.919a40.484,40.484,0,0,0-40.483,0L29.329,36.374A40.477,40.477,0,0,0,9.09,71.431v40.912A40.477,40.477,0,0,0,29.329,147.4l35.43,20.457a40.484,40.484,0,0,0,40.483,0L140.67,147.4a40.484,40.484,0,0,0,20.242-35.057" transform="translate(6.38 7.367)" fill="#fff"/>
        <path id="Path_41846" data-name="Path 41846" d="M160.913,112.343V71.431A40.484,40.484,0,0,0,140.67,36.374L105.242,15.919a40.484,40.484,0,0,0-40.483,0L29.329,36.374A40.477,40.477,0,0,0,9.09,71.431v40.912A40.477,40.477,0,0,0,29.329,147.4l35.43,20.457a40.484,40.484,0,0,0,40.483,0L140.67,147.4A40.484,40.484,0,0,0,160.913,112.343Z" transform="translate(6.38 7.367)" fill="none" stroke="#1a1818" stroke-miterlimit="10" stroke-width="0.193"/>
      </g>
    </g>
    <g id="Group_404" data-name="Group 404" transform="translate(16.207 17.123)">
      <g id="Group_403" data-name="Group 403" clip-path="url(#clip-path-2)">
        <path id="Path_41847" data-name="Path 41847" d="M62.707,103.922l-.946.529c.383-.189.732-.371,1.04-.538l-.094.008" transform="translate(27.143 55.813)" fill="#004cac"/>
        <path id="Path_41848" data-name="Path 41848" d="M163.43,111.238a1.87,1.87,0,0,1-.262-.078v.012l-25.991-.793q.5-13.392.992-26.784a9.11,9.11,0,0,0,7.18-5.945,8.921,8.921,0,0,0-.434-6.357,7.625,7.625,0,0,0,0-12.5,8.253,8.253,0,0,0-2.777-10.118,8.235,8.235,0,0,0-1.588-5.557V32.657l-5.71-3.288L134,39.748H112.773V16.66l-6.746-3.885V39.748q-13.788-.5-27.578-.992a9.789,9.789,0,0,0-12.9-7.739,8.126,8.126,0,0,0-11.9.992,9.229,9.229,0,0,0-10.593,3.373,4.915,4.915,0,0,0-3.264.335,4.852,4.852,0,0,0-2.015,1.847L23.7,37.085c-.165.094-.332.186-.5.277a31.814,31.814,0,0,0-7.543,5.987l18.663.747.926,21.958H8.665v-.085c-.4,0-.793-.009-1.19-.005l.235,6.888q.156.02.306.046v-.017H35l.793,26.585a9.474,9.474,0,0,0-7.539,12.9,7.888,7.888,0,0,0-2.481,5.94,8.164,8.164,0,0,0,4.069,6.362,6.772,6.772,0,0,0-1.028,4.484,7,7,0,0,0,3.21,4.84q1.488,3.074,2.977,6.151v6.944l-.092-.053c.01.4,0,.8-.017,1.2l6.312,3.319a.513.513,0,0,1,.009-.46l-.061-.036v-8.333H61.982v19.749l5.174,2.72.977-22.468H93.925a9,9,0,0,0,4.966,6.574,8.742,8.742,0,0,0,7.136-.225,7.235,7.235,0,0,0,11.707-.4,7.679,7.679,0,0,0,5.965.362,7.5,7.5,0,0,0,3.756-3.142,5.945,5.945,0,0,0,5.754-1.983h10.514l-.1.053c.657.044,1.312-.012,1.969.046l1.271-.679a31.313,31.313,0,0,0,8.04-5.57H136.184V116.926h25.991l.009.037c.744-.012,1.484-.106,2.226-.153q.084-2.734.172-5.466a4.934,4.934,0,0,1-1.152-.106M42.34,44.56a4.3,4.3,0,0,0,4.365.926c1.1-.449,1.3-1.464,1.654-2.713a28.972,28.972,0,0,1,.528-3.041A1.871,1.871,0,0,1,50.674,39a1.828,1.828,0,0,1,1.123.728l-.066,2.645A3.3,3.3,0,0,0,55.5,44.823a3.232,3.232,0,0,0,2.381-2.777q.263-2.05.528-4.1a1.931,1.931,0,0,1,2.117-1.654,1.9,1.9,0,0,1,1.521,1.654v3.77a3.217,3.217,0,0,0,6.2.066V39.2a1.695,1.695,0,1,1,3.387-.066c.031,1.343.061,3.555,0,6.283-.323,14.09-2.594,18.1.323,22.174,2.228,3.114,7.185,5.858,7.282,5.935a2.4,2.4,0,0,1,.594,1.719,2.353,2.353,0,0,1-.594,1.389l-8.8,2.713c-.422.005-5.429.15-7.739,4.034a7.789,7.789,0,0,0-1.057,3.77L61.52,97.933a4.56,4.56,0,0,1-4.564,3.571L41.15,99.718ZM85.648,72.881l6.217.977q1.784,6.02,3.571,12.038a8.05,8.05,0,0,0,5.424,5.86h4.573v5.78q-5.461,1.192-10.923,2.381a9.134,9.134,0,0,0-5.819,3.44,9.236,9.236,0,0,0-1.588,7.276l-5.952-.648q-1.721-5.8-3.44-11.593A6.921,6.921,0,0,0,75.6,94.361a6.845,6.845,0,0,0-3.571-1.719l-4.1-.795-.783-4.893,13.482-3.836a7.367,7.367,0,0,0,5.026-10.237m11.243,48.4q-.891,7.9-1.785,15.806L39.947,135.9a4.3,4.3,0,0,0,.926-4.365c-.448-1.1-1.464-1.3-2.711-1.654a28.935,28.935,0,0,1-3.043-.528,1.866,1.866,0,0,1-.727-1.787,1.835,1.835,0,0,1,.727-1.123l2.646.066a3.3,3.3,0,0,0,2.447-3.771,3.236,3.236,0,0,0-2.779-2.381l-4.1-.528a1.933,1.933,0,0,1-1.654-2.117,1.9,1.9,0,0,1,1.654-1.521H37.1a3.217,3.217,0,0,0,.066-6.2H34.59a1.695,1.695,0,1,1-.066-3.387c1.343-.031,3.555-.061,6.283,0,14.09.323,18.1,2.594,22.176-.323,3.114-2.228,5.856-7.185,5.933-7.282a2.4,2.4,0,0,1,1.721-.594,2.353,2.353,0,0,1,1.389.594l2.711,8.8c.005.422.151,5.429,4.034,7.739a7.8,7.8,0,0,0,3.771,1.057l10.78.133a4.56,4.56,0,0,1,3.571,4.564m33.362,16.864a4.3,4.3,0,0,0-4.365-.926c-1.1.449-1.3,1.464-1.653,2.711a28.9,28.9,0,0,1-.529,3.043,1.865,1.865,0,0,1-1.785.727,1.827,1.827,0,0,1-1.125-.727q.033-1.322.066-2.646a3.3,3.3,0,0,0-3.77-2.446,3.227,3.227,0,0,0-2.381,2.778q-.266,2.05-.529,4.1a1.931,1.931,0,0,1-2.117,1.654,1.9,1.9,0,0,1-1.521-1.654v-3.77a3.217,3.217,0,0,0-6.2-.066v2.58a1.694,1.694,0,1,1-3.385.066c-.032-1.343-.063-3.555,0-6.283.322-14.09,2.594-18.1-.325-22.176-2.228-3.114-7.185-5.856-7.281-5.933a2.388,2.388,0,0,1-.6-1.719,2.358,2.358,0,0,1,.6-1.39l8.8-2.711c.422-.005,5.429-.151,7.739-4.034a7.818,7.818,0,0,0,1.059-3.77q.066-5.392.131-10.782a4.672,4.672,0,0,1,1.787-2.711,4.617,4.617,0,0,1,2.777-.859q7.9.891,15.807,1.785ZM133.477,77.2c-14.09-.322-18.1-2.594-22.174.323-3.114,2.228-5.858,7.187-5.935,7.282a2.4,2.4,0,0,1-1.719.6,2.351,2.351,0,0,1-1.389-.6q-1.358-4.4-2.713-8.8c-.005-.422-.15-5.429-4.033-7.739a7.8,7.8,0,0,0-3.77-1.059l-10.782-.133a4.56,4.56,0,0,1-3.571-4.563q.894-7.9,1.785-15.807L134.336,47.9a4.294,4.294,0,0,0-.926,4.364c.449,1.106,1.464,1.3,2.711,1.654a28.467,28.467,0,0,1,3.043.529,1.87,1.87,0,0,1,.728,1.785,1.84,1.84,0,0,1-.728,1.125l-2.645-.066a3.3,3.3,0,0,0-2.447,3.77,3.229,3.229,0,0,0,2.777,2.381l4.1.529a1.928,1.928,0,0,1,1.654,2.115,1.9,1.9,0,0,1-1.654,1.521h-3.77a3.328,3.328,0,0,0-2.381,3.44,3.294,3.294,0,0,0,2.315,2.764h2.58a1.695,1.695,0,1,1,.066,3.387c-1.343.031-3.555.063-6.283,0" transform="translate(-10.96 -8.156)" fill="#004cac"/>
      </g>
    </g>
  </g>
</svg>
