<svg id="Group_514" data-name="Group 514" xmlns="http://www.w3.org/2000/svg" width="27.456" height="27.713" viewBox="0 0 27.456 27.713">
  <path id="Path_41965" data-name="Path 41965" d="M8.813,17.225,9.65,16.3a3.85,3.85,0,0,0-.272-5.438L7.964,9.585a3.851,3.851,0,0,0-5.438.271l-.837.927a3.8,3.8,0,0,0-.308.388l-.039.043A4.689,4.689,0,0,0,.27,15.549a21.6,21.6,0,0,0,19.2,17.361,5.424,5.424,0,0,0,3.31-.691,3.877,3.877,0,0,0,.94-.758l.838-.927a3.854,3.854,0,0,0-.273-5.437L22.867,23.82a3.847,3.847,0,0,0-5.437.273l-.838.925a3.828,3.828,0,0,0-.794,1.354l-.075.224-.22-.087a16.214,16.214,0,0,1-8.571-7.866l-.119-.238.255-.077a3.833,3.833,0,0,0,1.743-1.1" transform="translate(-0.156 -5.223)" fill="#0c5db8"/>
  <path id="Path_41966" data-name="Path 41966" d="M34.229.9a.9.9,0,0,0,.9.9A11.421,11.421,0,0,1,46.534,13.2a.9.9,0,0,0,1.795,0A13.217,13.217,0,0,0,35.126,0a.9.9,0,0,0-.9.9" transform="translate(-20.872 -0.001)" fill="#0c5db8"/>
  <path id="Path_41967" data-name="Path 41967" d="M33.86,12.1a.9.9,0,0,0,.9.9,7.169,7.169,0,0,1,7.162,7.161.9.9,0,1,0,1.794,0A8.966,8.966,0,0,0,34.757,11.2a.9.9,0,0,0-.9.9" transform="translate(-20.648 -6.812)" fill="#0c5db8"/>
</svg>
