<svg id="Group_513" data-name="Group 513" xmlns="http://www.w3.org/2000/svg" width="27.579" height="18.349" viewBox="0 0 27.579 18.349">
  <path id="Path_41961" data-name="Path 41961" d="M.054,340.637l12.076-7.122L0,326.364V340.2a1.911,1.911,0,0,0,.054.434" transform="translate(0 -323.767)" fill="#0c5db8"/>
  <path id="Path_41962" data-name="Path 41962" d="M13.063,345.412.656,352.726a1.9,1.9,0,0,0,1.654.971H26.066a1.909,1.909,0,0,0,1.735-1.12l-12.153-7.165-1.292.762Z" transform="translate(-0.399 -335.348)" fill="#0c5db8"/>
  <path id="Path_41963" data-name="Path 41963" d="M52.059,340.511V326.87l-11.794,6.953,11.769,6.942a1.871,1.871,0,0,0,.026-.254" transform="translate(-24.481 -324.075)" fill="#0c5db8"/>
  <path id="Path_41964" data-name="Path 41964" d="M1.911,319.739A1.91,1.91,0,0,0,0,321.648v.058l13.957,8.227,13.622-8.03v-.255a1.91,1.91,0,0,0-1.911-1.909Z" transform="translate(0 -319.739)" fill="#0c5db8"/>
</svg>
